<svg id="LOGO" xmlns="http://www.w3.org/2000/svg" width="346.215" height="121.26" viewBox="0 0 346.215 121.26">
    <path id="Path_17860" data-name="Path 17860"
          d="M521.1,410.736c.435-1.384.491-3.049-1.38-3.563-1.649-.453-2.636.4-3.231,2.033-2.783,7.627-5.943,15.128-8.425,22.847-3.984,12.393-7.53,24.926-11.294,37.394-.4,1.329-.58,2.72-2.03,3.63-8.555,5.354-16.844,11.129-25.564,16.228a40.26,40.26,0,0,1-8.913,4.295c-3.4.994-5.653.05-6.487-2.558-1.051-3.288.471-7.581,3.069-8.608a34.586,34.586,0,0,0,17.172-14.523,11.837,11.837,0,0,0,1.72-5c.452-4.238-2.462-7.02-6.663-6.407a12.062,12.062,0,0,0-5.508,2.478c-3.389,2.556-5.582,6.11-7.941,9.527-.471.682-.72,1.549-1.644,1.837a131.272,131.272,0,0,0-13.718,5.4c-1.418.627-1.566.018-1.521-1.158a31.09,31.09,0,0,0-.451-6.584,8.239,8.239,0,0,0-10.886-6.5,24.9,24.9,0,0,0-7.508,4.212c-1.353,1.1-2.744,2.155-4.178,3.254a.824.824,0,0,1-1.315-.784,10.374,10.374,0,0,1,.431-1.429c3.972-12.579,7.916-25.166,11.99-37.713,1.828-5.623,3.89-11.174,5.915-16.731a2.079,2.079,0,0,0-1.2-2.915,2.325,2.325,0,0,0-3.225,1.149,30.05,30.05,0,0,0-1.294,2.757c-3.033,7.626-5.676,15.389-8.121,23.22q-2.752,8.809-5.482,17.625a99.124,99.124,0,0,1-2.971,9.508c-1.9,4.441-5.854,7.914-9.451,10.995a72.116,72.116,0,0,1-13.11,8.966c-1.3.687-2.786,2.011-4.165.792-1.15-1.019-.411-2.689-.116-4.081.992-4.674,3.358-8.85,4.826-13.351.288-.885.924-1.9-.117-2.525-2.987-1.8-5.755-4.2-9.692-3.611-4.5.677-6.975,3.989-9.432,7.212a31.961,31.961,0,0,1-7.824,7.566c-5.138,3.371-8.5,2.371-11.225-3.156-2.9-5.873-6.658-6.776-12.161-2.9a22.43,22.43,0,0,0-2.369,1.954c-1.5,1.409-2.912,2.886-4.9,4.872a6.385,6.385,0,0,1,.038-2.575,19.7,19.7,0,0,1,.76-3.313,20.115,20.115,0,0,1,1-2.947c.815-1.965,1.445-4.047,2.129-6.073a2.3,2.3,0,0,0-1.154-3.026c-1.3-.686-2.342-.018-3.1.979a11.565,11.565,0,0,0-1.45,2.666c-.294.74-.622,1.47-.869,2.233-.776,2.391-1.055,4.8-2.512,6.915a18.438,18.438,0,0,1-6.1,5.013c-4.327,2.511-7.479,1.349-9.751-3.17-.456-.91-.87-1.844-1.4-2.708a5.957,5.957,0,0,0-7.441-2.7A17.279,17.279,0,0,0,294,472.364c-1.482,1.515-2.766,3.223-4.22,4.766-.04-.02-.035-.02-.076-.04,1.106-4.573,1.931-9.229,3.215-13.751,1.125-3.981,2.608-7.861,3.968-11.774.512-1.469.392-2.763-1.1-3.473-1.581-.752-2.589.341-3.435,1.515a5.132,5.132,0,0,0-.536.962,114.274,114.274,0,0,0-7.744,31.269c-.209,1.838.2,3.78,2.115,4.5,1.842.691,3.161-.722,4.321-1.988.514-.56.929-1.209,1.388-1.819a54.447,54.447,0,0,1,5.8-6.75c4.3-4.113,5.214-4,8.15,1.008.044.073.07.157.115.229,3.08,5.169,8.406,6.963,14.021,4.659,1.615-.661,3.16-1.494,4.952-2.351-.036.745-.041,1.231-.086,1.716-.188,2.11-.175,4.415,2.058,5.256,2.116.795,3.555-.967,4.8-2.519.212-.266.4-.55.606-.82a47.032,47.032,0,0,1,7.25-8.164c3.469-2.88,4.331-2.719,6.5,1.085.3.518.576,1.041.89,1.544a10.69,10.69,0,0,0,13.036,4.562c.727-.256,1.43-.8,2.336-.62a8.285,8.285,0,0,1-.113.937c-.518,2.037-.292,3.9,1.435,5.3,1.848,1.5,3.644.76,5.422-.257,2.317-1.329,4.028-3.357,5.982-5.108.834-.747,1.694-2.174,2.878-1.578.811.4.171,1.864.121,2.843-.261,5.082,2.932,7.642,7.759,6.165,6.5-1.986,11.708-6.038,16.689-10.446,1.286-1.137,2.53-2.314,4.352-3.983-1.8,6.225-3.507,11.607-5.474,16.9a30.772,30.772,0,0,0-1.215,3.871,2.576,2.576,0,0,0,1.514,3.16c1.358.565,2.425-.07,3.225-1.288a20.668,20.668,0,0,0,2.309-5.339c3.033-9.747,9.129-17.292,16.919-23.629a11.175,11.175,0,0,1,6.256-2.575c1.017-.081,1.923.121,2.215,1.233a27.929,27.929,0,0,1,.322,10.851c-.326,2.474-2.564,3.481-4.25,4.8A98.371,98.371,0,0,0,407.536,505.8a30.365,30.365,0,0,0-5.273,14.119c-.267,2.708.135,5.376,2.644,6.976,2.8,1.791,5.618.39,8.024-1.368a26.577,26.577,0,0,0,3.783-3.4,86.3,86.3,0,0,0,20.439-37.208c.217-.822.239-1.886.986-2.271a96.377,96.377,0,0,1,12.948-5.767c-.454,1.216-.755,1.99-1.039,2.768a25.53,25.53,0,0,0-1.6,10.467c.352,5.541,3.657,8.682,9.18,8.733a16.463,16.463,0,0,0,6.878-1.578c7.025-3.1,13.244-7.556,19.7-11.621,3.039-1.915,6.082-3.821,9.486-5.954-1.34,5.31-2.6,10.117-3.758,14.951q-2.38,10-3.784,20.2c-.21,1.532-.276,3.341,1.707,3.695,2.067.369,2.936-1.182,3.19-3.187.49-3.881,1.283-7.716,2.155-11.531a736.441,736.441,0,0,1,24.369-83.032c1.194-3.345,2.468-6.666,3.531-10.05m-54.674,52.15a4.809,4.809,0,0,1,1.457-.989c.812-.358,1.756-.833,2.56-.017.654.663.35,1.412.07,2.129-2.425,6.185-6.964,10.186-13.123,12.569a42.478,42.478,0,0,1,9.036-13.691M380.163,468.5a41.115,41.115,0,0,1-11.244,11.846,21.974,21.974,0,0,1,9.321-13.856c.55-.374,1.153-1.211,1.977-.482.923.813.455,1.672-.054,2.492m37.58,44.417a45.757,45.757,0,0,1-7.134,7.93c-.7.561-1.489,1.394-2.469.864-.906-.489-.456-1.526-.464-2.337a10.751,10.751,0,0,1,1.132-4.4c4.5-10.275,12.068-18.128,20.276-25.46a5.617,5.617,0,0,1,1.12-.474,71.028,71.028,0,0,1-12.461,23.876"
          transform="translate(-226.518 -406.464)" fill="#fff"/>
    <path id="Path_17861" data-name="Path 17861"
          d="M222.663,440.475c.017-1.933-1.757-2.333-3.323-2.389-2.2-.082-4.408.011-6.614.089-3.272.112-3.225.143-2.481-2.917,1.8-7.446,2.992-14.941,1.874-22.646-.934-6.4-6.124-8.785-11.512-5.164a38.986,38.986,0,0,0-8.086,7.307,124.611,124.611,0,0,0-15.046,22,3,3,0,0,1-3.189,1.853c-3.128-.182-6.274-.161-9.409-.246-1.465-.042-2.984.138-2.988,1.919a2.687,2.687,0,0,0,2.961,2.807q3.185.049,6.362.156c2.778.089,2.828.123,1.61,2.682a261.162,261.162,0,0,0-12.874,32.01,95.931,95.931,0,0,0-3.181,12.005,2.612,2.612,0,0,0,1.772,3.242c1.593.5,2.494-.579,2.928-2.04.123-.4.205-.82.325-1.226a257.543,257.543,0,0,1,16.733-44.076c.978-1.964,2.118-2.751,4.275-2.625,2.79.161,5.6.04,8.4.036,3.136,0,6.281.081,9.414-.033,2.312-.084,2.662.713,2.033,2.844-5.479,18.484-10.856,37-16.258,55.5-.547,1.871-1.406,3.908,1.018,5.091,1.522.738,2.953-.7,3.939-3.691.08-.238.207-.465.28-.707,1.414-4.7,2.864-9.382,4.215-14.095,4.081-14.222,8.161-28.446,12.142-42.7.5-1.788,1.241-2.447,3.1-2.351a35.475,35.475,0,0,0,8.364-.426c1.439-.271,3.2-.394,3.217-2.209m-18.085-2.984c-.294,1.233-1.095,1.1-1.9,1.1-3.134.021-15.5.274-18.549.307-1.368.015-1.925-.235-1.091-1.716,4.878-8.663,10.315-16.907,17.592-23.791a10.844,10.844,0,0,1,3.963-2.673c1.792-.591,2.857.091,2.968,1.938.518,8.456-1.029,16.664-2.981,24.831"
          transform="translate(-156.697 -405.75)" fill="#fff"/>
    <path id="Path_17862" data-name="Path 17862"
          d="M807.43,409.272a2.009,2.009,0,0,0-1.481-2.116,2.333,2.333,0,0,0-2.725.856,9.921,9.921,0,0,0-.824,1.843c-10.462,26.121-17.754,53.237-25.186,80.307a201.857,201.857,0,0,0-4.962,25.024c-.027,1.516.027,3.067,1.723,3.339,1.737.28,2.883-.666,3.08-2.543.052-.5.26-.985.336-1.484a254.773,254.773,0,0,1,6.024-27.757c6.648-24.484,13.747-48.834,22.706-72.6a13.081,13.081,0,0,0,1.309-4.868"
          transform="translate(-494.252 -406.455)" fill="#fff"/>
    <path id="Path_17863" data-name="Path 17863"
          d="M866.5,536.711a2.236,2.236,0,0,0-3.014-.353,24.039,24.039,0,0,0-2.54,2.117,68.084,68.084,0,0,1-14.347,10.472c-1.154.613-2.508,1.693-3.742.653-1.158-.975-.521-2.524-.254-3.823.716-3.5,2.275-6.717,3.527-10.041,2.372-6.3,3.262-5.432-3.262-8.784-3.228-1.661-6.254-1.5-8.827.42-7.02,5.241-10.822,12.668-12.932,21a4.1,4.1,0,0,0,1.756,4.48,4.022,4.022,0,0,0,4.543,0,21.413,21.413,0,0,0,4.841-3.679,45.942,45.942,0,0,1,3.6-3.209c.984-.784,1.543-.49,1.414.826-.046.506-.068,1.015-.1,1.523-.375,5.545,2.854,8.112,8.142,6.346,8.561-2.86,14.935-8.869,21.19-15a1.909,1.909,0,0,0,.005-2.945m-27.258-3.089a41.192,41.192,0,0,1-11.248,11.849,21.957,21.957,0,0,1,9.321-13.854c.55-.374,1.152-1.211,1.977-.484.923.811.458,1.671-.051,2.49"
          transform="translate(-520.972 -471.589)" fill="#fff"/>
    <path id="Path_17864" data-name="Path 17864"
          d="M267.008,616.98h2.54a2.282,2.282,0,0,1,1.643.569,1.716,1.716,0,0,1,.474,1.228v.018a1.708,1.708,0,0,1-1.352,1.725l1.54,2.158h-1.189l-1.4-1.987h-1.252v1.987h-1Zm2.468,2.823c.718,0,1.172-.373,1.172-.951v-.018c0-.611-.439-.944-1.181-.944h-1.456V619.8Z"
          transform="translate(-217.189 -521.584)" fill="#fff"/>
    <rect id="Rectangle_1904" data-name="Rectangle 1904" width="1.001" height="5.698"
          transform="translate(56.986 95.394)" fill="#fff"/>
    <path id="Path_17865" data-name="Path 17865"
          d="M290.318,621.748l.6-.716a2.637,2.637,0,0,0,1.8.741c.618,0,1.008-.3,1.008-.717v-.017c0-.407-.228-.627-1.288-.871-1.211-.293-1.895-.65-1.895-1.7v-.015a1.742,1.742,0,0,1,1.944-1.653,3.163,3.163,0,0,1,2.069.715l-.536.758a2.6,2.6,0,0,0-1.548-.587c-.589,0-.927.3-.927.675v.018c0,.438.258.635,1.359.9,1.206.293,1.822.723,1.822,1.668v.018c0,1.063-.836,1.7-2.034,1.7a3.523,3.523,0,0,1-2.38-.912"
          transform="translate(-229.972 -521.484)" fill="#fff"/>
    <path id="Path_17866" data-name="Path 17866" d="M306.05,617.907h-1.807v-.927h4.624v.927h-1.809v4.77H306.05Z"
          transform="translate(-237.608 -521.584)" fill="#fff"/>
    <path id="Path_17867" data-name="Path 17867"
          d="M318.283,619.725v-.015a2.981,2.981,0,0,1,5.961-.018v.018a2.981,2.981,0,0,1-5.961.015m4.91,0v-.015a1.953,1.953,0,0,0-1.937-2.027,1.924,1.924,0,0,0-1.921,2.01v.018a1.946,1.946,0,0,0,1.937,2.02,1.92,1.92,0,0,0,1.921-2.005"
          transform="translate(-245.307 -521.465)" fill="#fff"/>
    <path id="Path_17868" data-name="Path 17868"
          d="M336.872,616.98h2.544a2.274,2.274,0,0,1,1.64.569,1.711,1.711,0,0,1,.475,1.228v.018a1.71,1.71,0,0,1-1.353,1.725l1.542,2.158h-1.19l-1.4-1.987h-1.254v1.987h-1Zm2.47,2.823c.717,0,1.171-.373,1.171-.951v-.018c0-.611-.443-.944-1.182-.944h-1.458V619.8Z"
          transform="translate(-255.501 -521.584)" fill="#fff"/>
    <path id="Path_17869" data-name="Path 17869"
          d="M354.036,616.885h.932l2.507,5.741h-1.06l-.578-1.375h-2.693l-.588,1.375H351.53Zm1.435,3.477-.985-2.278-.977,2.278Z"
          transform="translate(-263.539 -521.532)" fill="#fff"/>
    <path id="Path_17870" data-name="Path 17870"
          d="M369.561,616.976h.927l3.057,3.941v-3.941h.981v5.7h-.838l-3.142-4.055v4.055h-.985Z"
          transform="translate(-273.427 -521.582)" fill="#fff"/>
    <path id="Path_17871" data-name="Path 17871" d="M387.412,617.907H385.6v-.927h4.627v.927h-1.81v4.77h-1.008Z"
          transform="translate(-282.224 -521.584)" fill="#fff"/>
    <path id="Path_17872" data-name="Path 17872"
          d="M400.9,616.976h4.226v.9H401.9v1.483h2.855v.895H401.9v1.531h3.266v.9H400.9Z"
          transform="translate(-290.611 -521.582)" fill="#fff"/>
    <rect id="Rectangle_1905" data-name="Rectangle 1905" width="1" height="5.698" transform="translate(120.684 95.394)"
          fill="#fff"/>
    <path id="Path_17873" data-name="Path 17873" d="M433.118,617.907h-1.808v-.927h4.627v.927h-1.81v4.77h-1.009Z"
          transform="translate(-307.289 -521.584)" fill="#fff"/>
    <path id="Path_17874" data-name="Path 17874"
          d="M446.4,616.885h.927l2.509,5.741h-1.058l-.578-1.375h-2.7l-.587,1.375H443.9Zm1.432,3.477-.985-2.278-.978,2.278Z"
          transform="translate(-314.192 -521.532)" fill="#fff"/>
    <path id="Path_17875" data-name="Path 17875" d="M461.925,616.976h1v4.788h3v.912h-4Z"
          transform="translate(-324.078 -521.582)" fill="#fff"/>
    <rect id="Rectangle_1906" data-name="Rectangle 1906" width="1.001" height="5.698"
          transform="translate(144.165 95.394)" fill="#fff"/>
    <path id="Path_17876" data-name="Path 17876"
          d="M485.633,616.885h.932l2.5,5.741h-1.058l-.577-1.375h-2.7l-.583,1.375h-1.025Zm1.434,3.477-.984-2.278-.977,2.278Z"
          transform="translate(-335.704 -521.532)" fill="#fff"/>
    <path id="Path_17877" data-name="Path 17877"
          d="M501.158,616.976h.927l3.052,3.941v-3.941h.984v5.7h-.835l-3.146-4.055v4.055h-.983Z"
          transform="translate(-345.592 -521.582)" fill="#fff"/>
    <path id="Path_17878" data-name="Path 17878"
          d="M517.546,619.725v-.015a2.921,2.921,0,0,1,2.987-2.947,2.891,2.891,0,0,1,2.973,2.929v.018a2.921,2.921,0,0,1-2.989,2.945,2.891,2.891,0,0,1-2.971-2.93m4.909,0v-.015a1.953,1.953,0,0,0-1.938-2.027,1.924,1.924,0,0,0-1.92,2.01v.018a1.946,1.946,0,0,0,1.936,2.02,1.92,1.92,0,0,0,1.922-2.005"
          transform="translate(-354.579 -521.465)" fill="#fff"/>
</svg>
