<svg id="Character_1" data-name="Character 1" xmlns="http://www.w3.org/2000/svg" width="191.758" height="227.275" viewBox="0 0 191.758 227.275">
  <g id="Group_2692" data-name="Group 2692" transform="translate(169.746 227.275) rotate(-174)">
    <path id="Path_15" data-name="Path 15" d="M101.731,32.087c-.178-.162-.352-.33-.535-.485-.65-.55-1.323-1.075-1.948-1.65a7.619,7.619,0,0,1-1.039-1.187c-.253-.357-.16-.609.233-.779a2.757,2.757,0,0,1,.933-.284,14.7,14.7,0,0,1,4.031.122,15.022,15.022,0,0,0,3.14.14,7.908,7.908,0,0,0,1.274-.121c.413-.062.82-.166,1.325-.271-.1-.476-.165-.862-.251-1.246-.209-.931-.473-1.852-.624-2.792a6.245,6.245,0,0,1-.048-1.949c.227-1.411.517-2.815.866-4.2a22.757,22.757,0,0,0,.9-5.946,7.094,7.094,0,0,0-1.954-4.924c-.411-.434-.846-.847-1.236-1.3a5.757,5.757,0,0,0-3.386-1.672c-1.668-.362-3.343-.707-5.026-.99A19.437,19.437,0,0,0,95.6,2.327c-3.14-.07-6.284-.211-9.421-.123-2.984.084-5.967.365-8.939.669-1.594.163-3.17.532-4.745.85-2.88.582-5.776,1.111-8.625,1.82a18.605,18.605,0,0,0-7.19,3.331A5.819,5.819,0,0,0,55.713,9.9a19.677,19.677,0,0,0-1.181,1.713c-1.3,2.126,2.126,6.2,3.35,7.63,2.475,2.884,4.7,5.922,6.984,8.946.679.9,1.32,1.833,1.978,2.75,1.068,1.488,2.189,2.942,3.2,4.472,1.9,2.893,3.934,5.706,5.564,8.778.693,1.3,1.6,2.5,2.374,3.759a41.433,41.433,0,0,1,2.885,5.626c.506,1.2,1.122,2.354,1.691,3.528a12.526,12.526,0,0,1,1.076,2.557A34.646,34.646,0,0,1,84.7,67.126c.1,7.739-4.149,17.152-9.694,22.493a11.762,11.762,0,0,1-3.632,2.216c-2.984,1.293-6.315,1.278-9.5.982-3.116-.29-6.23-.542-9.345-.866-1.873-.2-3.74-.456-5.6-.756-1.183-.191-2.347-.5-3.639-.79-.077.054-.267.168-.439.306-.515.41-.542.558-.224,1.142,2.611,4.789.453,10.3-4.194,12.728a11.094,11.094,0,0,1-7.1,1.07,8.293,8.293,0,0,1-3.311-1.113c-.858.59-1.182,2.168-1.881,2.993a8.334,8.334,0,0,1-5.309,2.724c-2.036.2-4.067.114-6.1.11-1.556,0-3.11-.087-4.665-.11a3.772,3.772,0,0,0-1.042.148,17.956,17.956,0,0,1-3.35.449,19.207,19.207,0,0,0-2.214.4c-.639.129-1.27.308-1.913.4a1.468,1.468,0,0,1-1.531-.569c-.239-.4,2.512-3.21,2.832-3.564a13.2,13.2,0,0,0,3.366-5.482,18.215,18.215,0,0,0,.68-4.821c.008-1.409-.421-2.863-.243-4.26.557-4.376,2.719-9.526,6.9-11.615a18.131,18.131,0,0,1,4.6-1.337,12.533,12.533,0,0,1,5.942.462c.823.225,1.63.51,2.439.783.585.2.668.136.986-.432a17.206,17.206,0,0,1,1.322-2.093A10.869,10.869,0,0,1,30.027,77.7a5.589,5.589,0,0,1,3.209-1.246,9.573,9.573,0,0,1,5.456.625,12.246,12.246,0,0,1,3.93,2.6,18.807,18.807,0,0,1,3.193,4.244,4.983,4.983,0,0,1,.561,2.323c.013.665.1.788.75.888,3.838.591,7.549,1.768,11.354,2.52,3.614.715,8.071,1.586,11.729.966a9.717,9.717,0,0,0,2.528-.71c1.626-.772,2.566-2.377,3.632-3.75a29.981,29.981,0,0,0,4.9-8.722,35.676,35.676,0,0,0,1.8-6.535c.9-6.439-1.326-12.826-4.243-18.458-.751-1.45-1.487-2.908-2.272-4.339a19.573,19.573,0,0,0-1.208-1.817,12.155,12.155,0,0,1-.994-1.844,41.61,41.61,0,0,0-3.344-5.582,41.381,41.381,0,0,0-3.117-4.656c-1.375-1.494-2.487-3.232-3.774-4.8-.588-.72-1.187-1.436-1.712-2.2a27.6,27.6,0,0,0-2.1-2.658c-1.245-1.412-2.408-2.9-3.6-4.359-.553-.679-1.089-1.372-1.628-2.063a7.114,7.114,0,0,1-.527-.733c-.535-.9-1.067-1.8-1.574-2.716a7.6,7.6,0,0,1-.862-3.684c-.039-1.557.742-2.288,1.728-3.349,3.18-3.425,9.438-4.462,13.789-5.375A133.455,133.455,0,0,1,85.624.056C86.4,0,87.182-.009,87.96.007c6.251.121,16.22-.8,20.662,4.637a14.287,14.287,0,0,1,2.571,4.619,9.413,9.413,0,0,1,.2,3.814,28.413,28.413,0,0,1-1.037,5.01,16.507,16.507,0,0,0-.761,4.828,2.442,2.442,0,0,0,.064.6c.279,1.069.56,2.137.865,3.2.183.637.307.685.953.743a1.287,1.287,0,0,1,.729.282,3.766,3.766,0,0,1,1.331,3.371,8.663,8.663,0,0,1-.822,2.24c-.346.748-.788,1.453-1.184,2.179a1.326,1.326,0,0,0-.043,1.17c.274.673.573,1.337.879,2a10.663,10.663,0,0,1,.576,1.139,3.263,3.263,0,0,1-.327,2.4,1.1,1.1,0,0,1-1.257.622c-.372-.058-.738-.152-1.11-.215-.576-.1-.671-.007-.944.483-.462.832-.932,1.665-1.472,2.447a11.523,11.523,0,0,0-2.125,6.525,3.35,3.35,0,0,0,.78,2.151c.85,1.089,1.692,2.186,2.5,3.309,1.8,2.518.655,5.5-1.257,7.547-4.378,4.694-9.059,9.351-13.209,14.337A69.977,69.977,0,0,0,88.372,87.8c-1.585,2.61-3.98,6.465-3.982,9.627a1.041,1.041,0,0,1-.848.89c-.232-1.49.425-3.305.878-4.719a28.348,28.348,0,0,1,3.225-6.453c.872-1.379,1.67-2.812,2.622-4.134,1.055-1.464,2.24-2.837,3.385-4.235.892-1.088,1.8-2.16,2.72-3.227.654-.762,1.314-1.521,2-2.253,1.2-1.284,2.425-2.55,3.647-3.816,1.376-1.427,2.8-2.816,4.129-4.282a16.674,16.674,0,0,0,1.917-2.593,6.532,6.532,0,0,0,.535-1.784,1.012,1.012,0,0,0-.04-.52,9.868,9.868,0,0,0-1.419-2.9,1.362,1.362,0,0,0-.258-.222c-.332.134-.227.387-.25.6-.2,1.824-.195,3.953-2.775,3.613a8.792,8.792,0,0,1-3.906-1.5c-2.653-1.843-6.871-4.853-7.444-8.306-.155-.932.012-1.249.851-1.7a3.757,3.757,0,0,1,3.126-.324,17.121,17.121,0,0,1,2.33,1.041c.534.284.548.517.441,1.126a2.117,2.117,0,0,1-.567,1.2.673.673,0,0,0-.042,1.053.708.708,0,0,0,.157.162,6.381,6.381,0,0,0,2.575.98c.352.052.465-.14.406-.528-.137-.91-.144-.923.654-1.337a4.977,4.977,0,0,1,1.178-.476.668.668,0,0,0,.58-.672c.061-.549.089-1.1.184-1.647a17.232,17.232,0,0,1,.419-1.822,12.423,12.423,0,0,1,2.277-4.467,1.449,1.449,0,0,0,.126-.187c.279-.478.167-.609-.367-.728a6.734,6.734,0,0,1-4.773-3.673c-.5-1.041-1.084-2.041-1.606-3.072a13.437,13.437,0,0,0-1.465-2.093,16.378,16.378,0,0,1-1.243-2.049c-.159-.285-.3-.685.008-.9a1.455,1.455,0,0,1,1.034-.286,17.288,17.288,0,0,1,2.088.8c.245.1.488.2.732.3l.119-.194M17.845,108.814c.9,0,1.8-.016,2.706-.07a6.082,6.082,0,0,0,5.267-3.769c.544-1.333.879-1.273-.511-2.845a6.258,6.258,0,0,1-1.564-2.708c-.186-.808-.4-1.611-.565-2.423a3.442,3.442,0,0,1-.08-1.122,11.424,11.424,0,0,1,2.469-6.436,3.521,3.521,0,0,1,1.887-1.293.661.661,0,0,0,.432-.34,1.144,1.144,0,0,0-1.154-1.437c-.3.029-.6.1-.9.107a11.9,11.9,0,0,0-3.634.884,9.922,9.922,0,0,0-2.77,1.8,9.958,9.958,0,0,0-3.251,4.788,16.4,16.4,0,0,0-.552,1.8c-.279,1.3-.522,2.6-.748,3.909-.145.839-.216,1.691-.358,2.531a.52.52,0,0,1-.9.33,1.559,1.559,0,0,1-.6-1.392c.084-1.227.144-2.457.218-3.684a3.571,3.571,0,0,1,.08-.6c.213-.9.425-1.807.657-2.705a12.464,12.464,0,0,1,5.9-7.574,7.336,7.336,0,0,1,.79-.432,17.337,17.337,0,0,1,5.687-1.368c.694-.057.872-.29.822-.972a1.174,1.174,0,0,0-.614-1.054c-.266-.14-.512-.325-.787-.442a12.65,12.65,0,0,0-7.081-.8c-2.752.44-4.33,2.066-6.152,4.065a5.76,5.76,0,0,0-.674.8,10.587,10.587,0,0,0-.647,1.264,11.019,11.019,0,0,0-.9,2.153,15.8,15.8,0,0,0-.361,4.868,17.474,17.474,0,0,1,.05,2.1,17.868,17.868,0,0,0-.1,1.868,5.782,5.782,0,0,1-.32,2.517,12.987,12.987,0,0,1-1.043,2.808c-.393.611-.737,1.255-1.091,1.891a7.249,7.249,0,0,1-1.524,1.948,3.752,3.752,0,0,0-.776,1.095c-.181.351,0,.583.39.6a3.2,3.2,0,0,0,.6-.049c.645-.1,1.286-.232,1.933-.311a33.654,33.654,0,0,1,3.519-.363c2.091-.033,4.169.064,6.252.065M28.788,84.4a7.391,7.391,0,0,0,3.024,5.651,3.816,3.816,0,0,0,2.536,1.015,29.56,29.56,0,0,0,4.786-.394,9.84,9.84,0,0,0,4.471-2.028,2.6,2.6,0,0,0,1-1.383,4.722,4.722,0,0,0,.054-2.238,8.486,8.486,0,0,0-1.19-2.5A12.249,12.249,0,0,0,40.9,79.681a10.945,10.945,0,0,0-2.333-1.5,6.4,6.4,0,0,0-4.107-.547,14.014,14.014,0,0,0-1.632.255c-2.825.9-4.076,3.363-4.045,6.511m5.226,19.831a7.317,7.317,0,0,0,1.6-.17,7.52,7.52,0,0,0,3.759-2.244c.188-.234.44-.414.639-.639a6.864,6.864,0,0,0,1.709-3.307,9.417,9.417,0,0,0-.266-4.4,10.84,10.84,0,0,0-.441-1.2.6.6,0,0,0-.735-.361c-1.089.175-2.179.361-3.276.454a6.348,6.348,0,0,1-2.543-.14,11.3,11.3,0,0,1-4.816-2.527c-.386-.391-.536-.36-.951.027a5.3,5.3,0,0,0-1.688,2.7c-.044.193-.14.375-.195.567a9.715,9.715,0,0,0-.624,3.234,8.352,8.352,0,0,0,7.827,8M105.236,57.88c-.14-.947-.277-1.966-.443-2.979a1.673,1.673,0,0,0-1.021-1.226c-.517-.254-.807-.044-.783.53,0,.075.029.15.027.224-.025.8-.281,1.238-.909,1.354a3.834,3.834,0,0,1-1.417.056,8.789,8.789,0,0,1-3.1-1.314,1.842,1.842,0,0,1-.686-1.37c-.068-.39.365-.495.582-.721.086-.09.2-.154.286-.244a.607.607,0,0,0,.013-.982,3.307,3.307,0,0,0-3.207-.779c-.679.27-.826.519-.567,1.216a9.544,9.544,0,0,0,.7,1.415,10.263,10.263,0,0,0,2.4,3.057q1.262,1.008,2.482,2.066a7.914,7.914,0,0,0,3.343,1.81,4.222,4.222,0,0,0,1.4.007.77.77,0,0,0,.686-.7c.071-.444.134-.889.214-1.42m-4.878-28.933a2.026,2.026,0,0,0,.144.376,2.363,2.363,0,0,0,.308.329,34.842,34.842,0,0,0,3.787,3.086,4.837,4.837,0,0,0,2.678.842,1.713,1.713,0,0,0,1.911-1.451,12.623,12.623,0,0,0,.271-2.387c.024-.595-.2-.72-.8-.657a17.629,17.629,0,0,1-2.464.212c-1.679-.062-3.353-.23-5.03-.349-.234-.016-.472,0-.809,0m-.675,3.745a1.545,1.545,0,0,0,.552,1.164,19.153,19.153,0,0,1,2.613,4.281,10.409,10.409,0,0,0,1.691,2.742,2.5,2.5,0,0,0,2.906.792c.752-.273.882-.406.679-1.207-.178-.7-.46-1.383-.619-2.09a1.5,1.5,0,0,0-1.158-1.234A6.278,6.278,0,0,1,104.155,36c-1.1-.868-2.2-1.752-3.295-2.626a2.56,2.56,0,0,0-1.178-.682m11.248-3.744c-.014.249-.029.468-.036.687a9.8,9.8,0,0,1-.587,3.684,2.556,2.556,0,0,1-2.479,1.711,6.588,6.588,0,0,1-3.727-1.241c-.564-.345-1.12-.7-1.68-1.053-.046.178-.028.281.033.339q1.237,1.157,2.489,2.3a1.339,1.339,0,0,0,.456.258,13.676,13.676,0,0,0,2.074.661,1.461,1.461,0,0,1,1.242,1.134,5.56,5.56,0,0,0,.248.944,6.467,6.467,0,0,1,.724,2.358,1,1,0,0,0,.333.562,1.381,1.381,0,0,0,1.288.1.946.946,0,0,0,.114-1.063,12.031,12.031,0,0,0-.707-1.5,6.931,6.931,0,0,1-.774-2.421,2.269,2.269,0,0,1,.25-1.452c.4-.751.805-1.5,1.232-2.243a3.356,3.356,0,0,0,.283-3.3c-.136-.286-.273-.541-.776-.469" transform="translate(39.73 50.107) rotate(19)" fill="#fff" fill-rule="evenodd"/>
    <path id="Path_16" data-name="Path 16" d="M16.578,2.765c-.08.51-.169.892-.2,1.278a33.118,33.118,0,0,0,.36,7.286c.5,3.4.893,6.825,1.388,10.231.242,1.663.608,3.309.925,4.961,1.909,9.94,4.088,20.909-.095,30.656a12.949,12.949,0,0,1-3.584,4.781c-1.413,1.2-2.846,2.388-4.28,3.569-.793.654-1.64,1.246-2.4,1.931A18.673,18.673,0,0,0,2.846,81c.031,1.759,0,3.523.127,5.275a33.744,33.744,0,0,0,.6,3.4c.232,1.309.512,2.613.657,3.932A107.1,107.1,0,0,0,9.23,115.459c.284.853.309.9-.355,1.483-.226.2-.427.426-.649.63a.989.989,0,0,1-1.592-.4,34.764,34.764,0,0,1-1.585-6.04,7.907,7.907,0,0,0-.225-1.031c-.5-1.92-1.061-3.827-1.513-5.758A90.712,90.712,0,0,1,1.4,94.123C1.24,92.729.867,91.361.658,89.97.424,88.407.192,86.836.1,85.261a40.437,40.437,0,0,1-.032-5.05A20.668,20.668,0,0,1,3.153,70.084a17.2,17.2,0,0,1,3.856-4.292c1.564-1.221,3.057-2.533,4.614-3.762a17.048,17.048,0,0,0,2.786-2.637,14.16,14.16,0,0,0,2.569-5.65A40.25,40.25,0,0,0,18.124,43.2c-.024-1.05-.223-2.1-.334-3.146-.16-1.5-.285-3-.477-4.5-.441-3.417-1.1-6.795-1.828-10.161a47.752,47.752,0,0,1-.955-6.328,19.906,19.906,0,0,0-.328-2.085,78.307,78.307,0,0,1-1.243-9.337,37.224,37.224,0,0,1,.113-4.442,3.352,3.352,0,0,1,.884-2.121A3.733,3.733,0,0,1,17.046.006a7.25,7.25,0,0,1,1.329.26,1.687,1.687,0,0,1,1.2,1.049c2.936,6.554,5.949,12.917,8.466,19.643A103.191,103.191,0,0,1,32.06,32.5a107.632,107.632,0,0,0,3.577,10.938c.874,2.409,1.8,4.8,2.664,7.212a13.435,13.435,0,0,0,2.087,3.986,17.263,17.263,0,0,0,4.747,4.139,3.822,3.822,0,0,0,1.415.486c.868.109,1.75.114,2.626.14.21.006.357-.009.51.157.471.51-2.521,1.325-2.752,1.321a7.47,7.47,0,0,1-3.92-.892c-3.093-1.92-5.983-4.426-7.405-7.833-2.288-5.489-3.74-11.258-5.877-16.788-.117-.3-.172-.626-.262-.939-.286-.986-.546-1.98-.868-2.955q-.862-2.613-1.787-5.2c-.64-1.794-1.324-3.572-1.971-5.363-.383-1.061-.715-2.14-1.1-3.2-.293-.8-.61-1.593-.965-2.367-1.032-2.26-2.09-4.508-3.135-6.761-.654-1.412-1.3-2.83-1.956-4.24a4.946,4.946,0,0,0-1.108-1.572" transform="translate(85.447 0) rotate(19)" fill="#fff" fill-rule="evenodd"/>
    <path id="Path_17" data-name="Path 17" d="M7.407,18.9c.4.073.768.153,1.138.2a34.8,34.8,0,0,1,4.977,1.155c1.4.409,2.817.735,4.234,1.068,1.565.367,3.132.725,4.708,1.039,1.427.284,2.86.558,4.3.735,1.344.165,2.7.211,4.057.284A4.641,4.641,0,0,0,34.44,22a11.612,11.612,0,0,0,3.052-4.421A16.758,16.758,0,0,1,39.033,13.9c.261-.4.516-.8.8-1.181.37-.49.368-.741-.135-1.037q-1.3-.763-2.628-1.467c-1-.527-2.022-1.011-3.025-1.531A15.205,15.205,0,0,0,23.3,7.355a2.8,2.8,0,0,0-1.034.6,23.609,23.609,0,0,0-5,5.7c-.238.382-.444.786-.649,1.189a3.682,3.682,0,0,1-1.726,1.614c-.763.248-.791-.063-1.028-.848a2.288,2.288,0,0,1,.428-2,33.463,33.463,0,0,1,1.993-2.741c.868-1.04,1.819-2.012,2.749-3A7.685,7.685,0,0,1,22.539,5.9a17.484,17.484,0,0,1,8.422-.234,23.428,23.428,0,0,1,3.932,1.263A26.8,26.8,0,0,1,37.523,8.2c1.074.546,2.149,1.092,3.2,1.676.568.315,1.087.719,1.64,1.063a7.566,7.566,0,0,0,.869.446.656.656,0,0,1,.187,1.168,2.681,2.681,0,0,1-.613.434,4.664,4.664,0,0,0-2.431,3.009A30.1,30.1,0,0,1,38.7,19.934a12.426,12.426,0,0,1-2.147,2.8A8.2,8.2,0,0,1,31.5,25.01a19.933,19.933,0,0,1-3.908-.028c-1.846-.171-3.684-.47-5.511-.794q-2.853-.505-5.677-1.168c-2.516-.589-5.02-1.23-7.519-1.887a13.752,13.752,0,0,0-3.36-.357c-.477-.007-.956-.024-1.431.007-.573.038-1.145.11-1.715.188a2.376,2.376,0,0,1-2.051-.437c-.451-.4-.451-.572.091-.769,3.57-1.3,6.3-2.708,7.892-6.4.546-1.268,1.018-2.572,1.625-3.809a19.848,19.848,0,0,1,1.933-3.736,17.026,17.026,0,0,1,4.814-4.263A10.515,10.515,0,0,1,21.626.145c.8-.036,1.6-.132,2.407-.143,6.6-.093,12.955,2.911,18.43,6.322,1.45.9,2.9,1.807,4.39,2.642q2.428,1.362,4.932,2.589c1.417.692,2.858,1.353,4.334,1.9,1.644.613,3.347,1.066,5.012,1.626,2.237.751,4.452,1.566,6.695,2.3a9.7,9.7,0,0,0,3.551.875,2.426,2.426,0,0,0,2.146-1.144c.184-.3.38-.592.557-.9,1.286-2.215,5.477-4.522,8.052-2.98,1.51.908,2.718,1.673,3.4,3.391a15.48,15.48,0,0,1,.876,4.346A2.307,2.307,0,0,0,87.8,23.049a6.939,6.939,0,0,1,.92.514c.433.287.449.623.084.985a1.878,1.878,0,0,1-1.476.629,106.39,106.39,0,0,1-16.07-2.2c-1.4-.3-2.783-.64-4.17-.974q-3.141-.758-6.277-1.532a3.742,3.742,0,0,1-.72-.216,15.17,15.17,0,0,0-3.791-.952c-.79-.15-1.084.147-1.018.939.054.65.112,1.3.184,1.947a1.344,1.344,0,0,1-.587,1.321,2.885,2.885,0,0,1-.406-.473,6.9,6.9,0,0,1-.691-4.1c.1-.9.434-1.152,1.351-1.327a7.946,7.946,0,0,1,3.144.119c.98.205,1.937.521,2.9.783.873.237,1.747.465,2.619.7,1.842.5,3.677,1.034,5.527,1.5,1.338.339,2.7.562,4.044.9a73.9,73.9,0,0,0,9.951,1.674c.567.061,1.14.057,1.816.088a2.215,2.215,0,0,0-.12-.654,7.882,7.882,0,0,1-.836-3.182,6.536,6.536,0,0,0-.907-3.075,4.3,4.3,0,0,0-2.757-1.94,2.667,2.667,0,0,0-2.012.413,7.565,7.565,0,0,0-2.252,2.5c-.118.193-.222.4-.351.581-1.348,1.94-4.8,2.288-6.926,1.65-1.465-.439-2.893-1-4.343-1.489-1.665-.565-3.32-1.168-5.007-1.657a57.369,57.369,0,0,1-7.43-2.675c-2-.891-3.94-1.883-5.864-2.922a59.7,59.7,0,0,1-5.3-3.162,36.566,36.566,0,0,0-7.424-3.8,21.849,21.849,0,0,0-2.662-1.035,27.15,27.15,0,0,0-4.379-1.041,47.88,47.88,0,0,0-5.195-.1,5.949,5.949,0,0,0-3.193.99,13.632,13.632,0,0,0-1.446.952,19.8,19.8,0,0,0-4.51,6.554c-.938,1.977-1.481,5.377-3.441,6.574a4.041,4.041,0,0,0-1.39,1.732c-.029.055.006.144.018.307" transform="translate(8.198 93.925) rotate(19)" fill="#fff" fill-rule="evenodd"/>
    <path id="Path_18" data-name="Path 18" d="M.733,15.571a.576.576,0,0,1-.248.008c-1.586-.3,1.186-3.261,1.717-3.708A15.021,15.021,0,0,1,5.675,9.5a6.975,6.975,0,0,1,4.379-.695,4.892,4.892,0,0,0,.608.042c-.256-.016-.2-1.028-.1-1.211.2-.388,1.244-.737,1.6-.857a11.6,11.6,0,0,0,3.157-1.84c.446-.325.861-.691,1.317-1,.622-.422,1.257-.829,1.908-1.2a23.755,23.755,0,0,1,7-2.5A14.126,14.126,0,0,1,28.612,0c3.843.036,7.152,1.106,9.588,4.148,1.172,1.463,1.491,3.531,3.293,4.425,1.341.665,2.52.3,3.865-.045.993-.254,1.988-.5,2.981-.76,1.866-.482,2.83.99,1.408,2.384q-1.286,1.261-2.523,2.573c-1.672,1.766-2.849,3.845-4.736,5.44-5.332,4.508-13.413,5.558-19.374,1.869C21.4,18.976,19.7,17.915,18.1,16.7c-1.358-1.033-2.619-2.193-3.971-3.234a34.028,34.028,0,0,0-3.341-2.311,5.056,5.056,0,0,0-4.639-.2,9.1,9.1,0,0,0-3.774,2.662c-.361.435-.947,1.787-1.639,1.96m39.107-4.446a2.738,2.738,0,0,1-1.919,2.066,5.089,5.089,0,0,1-1.79.143,26.552,26.552,0,0,1-7.679-2.081c-1.856-.77-3.7-1.576-5.553-2.343a5.369,5.369,0,0,0-1.232-.327,29.565,29.565,0,0,0-9.383-.03.576.576,0,0,0-.362.412.591.591,0,0,0,.288.465c1.543.7,2.758,2.326,4.085,3.38.511.406,1.01.829,1.508,1.25.38.322.731.68,1.129.974.826.61,1.673,1.191,2.516,1.777q.463.322.949.609c.41.241.835.457,1.245.7a14.792,14.792,0,0,0,3.274,1.678,12.364,12.364,0,0,0,4.058.7q1.053-.051,2.1-.152a12.769,12.769,0,0,0,4.587-1.076,11.831,11.831,0,0,0,3.072-1.723c.454-.431.912-.861,1.337-1.32q1.125-1.215,2.209-2.466c.9-1.044,1.787-2.1,2.671-3.162.249-.3.468-.623.706-.942a.8.8,0,0,0-.98-.134c-.928.311-1.846.669-2.8.887a4,4,0,0,1-2.734-.188,7.194,7.194,0,0,1-2.545-1.968,25.5,25.5,0,0,1-1.913-2.776,7.137,7.137,0,0,0-3.489-2.97,12.534,12.534,0,0,0-6.716-.817,13.114,13.114,0,0,0-2.368.365,19.62,19.62,0,0,0-3.6,1.251c-.583.319-3.966,1.712-3.707,2.564.118.388.53.3.847.323.025,0,.051,0,.075,0,1.7.16,3.4.288,5.091.5a8.208,8.208,0,0,1,1.949.541c1.448.567,2.87,1.2,4.313,1.785,1.024.413,2.067.78,3.1,1.175a19.816,19.816,0,0,0,4.733,1.2,1.574,1.574,0,0,0,1.39-.348c.62-.558.921-.5,1.532.077" transform="translate(116.508 167.287) rotate(19)" fill="#fff" fill-rule="evenodd"/>
    <path id="Path_19" data-name="Path 19" d="M1.616.045c.674.225,1.131,1.233,1.555,1.77A7.108,7.108,0,0,0,5.986,3.884c.552.242,1.1.492,1.666.7.537.2,1.09.358,1.636.535,3.3,1.067,6.662,1.783,9.76,3.4a26.284,26.284,0,0,1,3.972,2.56A16.522,16.522,0,0,1,27.152,16.1a14.722,14.722,0,0,1,1.714,4.163,17,17,0,0,1,.012,7.041,42.577,42.577,0,0,0-.742,5.751,58.163,58.163,0,0,0-.057,6.255c.054,1.351.272,2.7.433,4.044.228,1.9.453,3.791.713,5.681.209,1.518.468,3.029.705,4.543.128.818.219,1.643.391,2.451.188.879.448,1.741.681,2.609.7,2.6,1.763,5.214,2.379,7.806a4.287,4.287,0,0,1-.011,1.263c-.027.366-.311.5-.624.549a.623.623,0,0,1-.712-.306,12.528,12.528,0,0,1-1.112-2.379c-.423-1.711-.981-3.378-1.438-5.075a59.322,59.322,0,0,1-1.435-6.4c-.654-4.273-1.278-8.556-1.685-12.857a39.591,39.591,0,0,1,.4-11.349,20.664,20.664,0,0,0,.381-5.549,12.4,12.4,0,0,0-2.093-6.139c-.226-.332-.439-.674-.641-1.021a13.894,13.894,0,0,0-3.847-4.1A29.667,29.667,0,0,0,11.348,8.9C9.887,8.444,8.4,8.071,6.925,7.658A17.969,17.969,0,0,1,2.931,5.9,4.956,4.956,0,0,1,.942,3.693C.754,3.311.525,2.95.323,2.576A1.644,1.644,0,0,1,.645.264,1.033,1.033,0,0,1,1.616.045" transform="translate(40.379 34.732) rotate(19)" fill="#fff" fill-rule="evenodd"/>
    <path id="Path_20" data-name="Path 20" d="M0,83.187a2.326,2.326,0,0,1,1.293-.945,7.193,7.193,0,0,0,3.394-2.251,19.848,19.848,0,0,0,3.052-4.186,25.708,25.708,0,0,0,1.6-3.561c2.258-6.263,3.773-13,8.655-17.929a42.433,42.433,0,0,1,3.2-2.966,25.531,25.531,0,0,1,7.719-4.463c1.347-.474,2.739-.819,4.088-1.287,1.636-.569,3.245-1.213,4.87-1.812a22.024,22.024,0,0,0,3.636-1.979,8.612,8.612,0,0,0,2.6-2.681,16.5,16.5,0,0,0,2.514-7.257,15.29,15.29,0,0,0-.04-2.207c-.012-1.052,0-2.1-.014-3.155,0-.246-.04-.491-.06-.738-.494-6.1-1.258-12.724,1.213-18.523C49.156,3.9,51.9.94,55.432.066c.512-.127,1.217-.107,1.374.4.179.573-.549.971-1.114,1.172-4.151,1.477-5.771,5.059-7.117,8.906a19.448,19.448,0,0,0-.86,7.266c.065,1.729.281,3.452.42,5.178.034.425.014.855.046,1.28.1,1.393.218,2.785.328,4.178.451,5.687-1.04,11.122-5.964,14.446a29.962,29.962,0,0,1-3.85,2.187,49.881,49.881,0,0,1-8.8,3.064,18.574,18.574,0,0,0-2.25.858A23.382,23.382,0,0,0,20.1,54.4a21.643,21.643,0,0,0-4.116,5.816c-2.392,4.857-3.271,10.306-5.791,15.064a23.056,23.056,0,0,1-4.674,5.772A7.873,7.873,0,0,1,.978,83.4a7.958,7.958,0,0,1-.929.005L0,83.187" transform="translate(112.251 108.979) rotate(19)" fill="#fff" fill-rule="evenodd"/>
    <path id="Path_21" data-name="Path 21" d="M59.5,0c.068.283.139.521.183.764a25.267,25.267,0,0,1-.381,9.7c-.57,2.917-1.031,5.8-1.706,8.7a24.884,24.884,0,0,1-.894,3.106,20.317,20.317,0,0,1-3.025,4.914,11.259,11.259,0,0,1-.911,1.2c-.934.947-1.865,1.9-2.871,2.77a32.265,32.265,0,0,1-6.14,3.934c-.73.385-1.512.671-2.263,1.019-.408.188-.786.453-1.206.608a32.142,32.142,0,0,1-3.129,1.066,90.415,90.415,0,0,1-10.178,2.148c-3.31.456-9.164.581-10.8,4.064q-.833,1.772-1.58,3.584a25.484,25.484,0,0,0-1.278,5.26,15.437,15.437,0,0,1-1.341,4.143c-.5,1.012-.936,2.056-1.461,3.054a23.476,23.476,0,0,1-3.726,5.459,17.383,17.383,0,0,1-3.565,2.756c-.3.183-.571.412-.875.586-.5.285-1.014.548-1.526.81a.525.525,0,0,1-.776-.21c-.164-.307.116-.455.313-.6.776-.552,1.537-1.129,2.346-1.628a12.345,12.345,0,0,0,3.781-3.924A24.5,24.5,0,0,0,8.443,59.56c.311-.713.651-1.415.995-2.113a14.311,14.311,0,0,0,1.219-4.09A34.25,34.25,0,0,1,11.785,48.7a21.975,21.975,0,0,1,1.281-3.114,9.778,9.778,0,0,1,2.8-3.809,15.232,15.232,0,0,1,7.17-3.083c2.114-.279,4.229-.571,6.329-.939,1.73-.3,3.439-.718,5.156-1.093.981-.214,1.957-.455,2.939-.667a18.528,18.528,0,0,0,4.253-1.5c.631-.309,1.274-.594,1.918-.878A19.529,19.529,0,0,0,49.405,29.6a19.2,19.2,0,0,0,2.588-3.225A27.552,27.552,0,0,0,53.7,23.536a21.1,21.1,0,0,0,1.8-4.458c1.2-5.085,2.693-10.431,2.841-15.657.026-.9,0-1.794.023-2.691.007-.306.473-.6,1.14-.731" transform="translate(113.952 125.127) rotate(19)" fill="#fff" fill-rule="evenodd"/>
    <path id="Path_22" data-name="Path 22" d="M34.7,35.088c.123-1.482.25-3.236.419-4.986a16.741,16.741,0,0,0-.258-5.475,6.472,6.472,0,0,0-2.677-3.976A8.929,8.929,0,0,0,29.38,19.4c-2.747-.683-5.59-.812-8.369-1.344-4.129-.79-9.23-1.786-12.776-4.184a19.847,19.847,0,0,1-4.1-3.141A13.948,13.948,0,0,1,2.792,8.92C1.194,6.342-.185,3.72.02.6.038.328.034,0,.432,0a.738.738,0,0,1,.757.508c.082.234.089.5.174.729C2.314,3.871,4.029,6.029,5.28,8.512c.914,1.813,3.152,3.342,4.976,4.15,1.124.5,2.256.983,3.408,1.409a49.413,49.413,0,0,0,7.841,2.14c1.277.246,2.585.328,3.879.485.15.018.3.041.448.062,1.336.2,2.68.352,4,.608a16.437,16.437,0,0,1,1.913.663c1.811.592,4.128,2.262,4.633,4.162a19.767,19.767,0,0,1,.57,5.067c0,3.178-.651,6.308-.54,9.5a46.961,46.961,0,0,0,2.532,12.344c.326,1.056.621,2.123,1,3.159.424,1.148.931,2.265,1.4,3.395.175.417.372.825.536,1.247a21.023,21.023,0,0,0,1.848,3.782c.351.546.637,1.135.947,1.707a.969.969,0,0,1-.255.951.53.53,0,0,1-.8-.129,16.436,16.436,0,0,1-1.568-2.207,52.639,52.639,0,0,1-3.408-7.633c-.965-2.883-1.866-5.787-2.785-8.685a25.6,25.6,0,0,1-.986-6.086c-.072-1.078-.113-2.158-.183-3.517" transform="translate(23.202 32.524) rotate(19)" fill="#fff" fill-rule="evenodd"/>
    <path id="Path_23" data-name="Path 23" d="M4.232,0a.705.705,0,0,1,.495.94,9.064,9.064,0,0,1-.56,1.7A13.631,13.631,0,0,0,2.494,7.057c-.107.69-.423,1.352-.5,2.042-.39,3.6.747,6.892,1.986,10.2.193.515.43,1.014.657,1.516,1.091,2.409,2.124,4.832,3.388,7.16,1.871,3.446,2.218,8.613-.02,11.961a6.1,6.1,0,0,0-.395.642A11.167,11.167,0,0,1,4.666,44.23a.974.974,0,0,1-1.11.23,2.478,2.478,0,0,1,.145-.521,2.23,2.23,0,0,1,.37-.475,12.753,12.753,0,0,0,2.691-4.586,10.05,10.05,0,0,0,.6-4.375c-.081-.794-.119-1.592-.2-2.387a4.444,4.444,0,0,0-.2-.72A38.319,38.319,0,0,0,4.833,25.89,86.045,86.045,0,0,1,.657,16.122C-.477,12.516.046,9.227.812,5.592a6.883,6.883,0,0,1,.667-1.753A11.13,11.13,0,0,1,4.232,0" transform="translate(146.612 113.196) rotate(19)" fill="#fff" fill-rule="evenodd"/>
    <path id="Path_24" data-name="Path 24" d="M0,3.066a2.347,2.347,0,0,1,.427-.244c1.149-.344,1.147-1.145.953-2.1A5.337,5.337,0,0,0,1.176.1C2.185-.144,2.571.036,2.865.886a3.064,3.064,0,0,1,.154.88,1.7,1.7,0,0,1-1.581,2C.826,3.9.566,3.782,0,3.066" transform="translate(42.225 135.798) rotate(19)" fill="#fff" fill-rule="evenodd"/>
    <path id="Path_25" data-name="Path 25" d="M6.363,2.691c-.14-.147-.285-.238-.337-.366-.233-.575-.71-.7-1.256-.785A6.857,6.857,0,0,0,1.819,1.9a4.963,4.963,0,0,1-.949.156.794.794,0,0,1-.764-.512C-.09,1.187-.021.993.371.874a26.423,26.423,0,0,1,2.74-.78A10.834,10.834,0,0,1,5.277.016a.872.872,0,0,1,.841.525c.165.36.426.678.584,1.041.25.572.228.582-.339,1.109" transform="translate(34.815 151.931) rotate(19)" fill="#fff" fill-rule="evenodd"/>
  </g>
</svg>
